#Comment line ignore any data following # character 
#Hierarchical Translation and Rotation (.htr) file 
[Header]	
#Header keywords are followed by a single value 
FileType HTR		#Single word string
DataType HTRS		#Translation followed by rotation and scale data
FileVersion 1		#integer
NumSegments 84		#integer
NumFrames 2		#integer
DataFrameRate 30		#integer, data frame rate in this file
EulerRotationOrder ZYX
CalibrationUnits mm
RotationUnits Degrees
GlobalAxisofGravity Y
BoneLengthAxis Y
ScaleFactor 1.00
[SegmentNames&Hierarchy]
#CHILD	PARENT
MASTER GLOBAL
root MASTER
chest root
L_mid_tent01 root
R_mid_tent01 root
spine01 root
Bip01_Neck chest
L_humerus chest
R_humerus chest
weapon_bone chest
Bip01_Head Bip01_Neck
eye_left_bone Bip01_Head
eye_right_bone Bip01_Head
L_forearm L_humerus
L_front_hand L_forearm
L_weapon_bone L_forearm
L_front_hand01_01 L_front_hand
L_front_hand02_01 L_front_hand
L_front_hand03_01 L_front_hand
L_front_hand01_02 L_front_hand01_01
L_front_hand02_02 L_front_hand02_01
L_front_hand03_02 L_front_hand03_01
R_forearm R_humerus
R_front_hand R_forearm
R_weapon_bone R_forearm
R_front_hand01_01 R_front_hand
R_front_hand02_01 R_front_hand
R_front_hand03_01 R_front_hand
R_front_hand01_02 R_front_hand01_01
R_front_hand02_02 R_front_hand02_01
R_front_hand03_02 R_front_hand03_01
null_rope01_connect L_mid_tent01
Rope1_Seg01 null_rope01_connect
Rope1_Seg02 Rope1_Seg01
Rope1_Seg03 Rope1_Seg02
Rope1_Seg04 Rope1_Seg03
Rope1_Seg05 Rope1_Seg04
Rope1_Seg06 Rope1_Seg05
Rope1_Seg07 Rope1_Seg06
Rope1_Seg09 Rope1_Seg07
L_mid_hand01 Rope1_Seg09
L_mid_hand02 Rope1_Seg09
L_mid_hand03 Rope1_Seg09
null_rope02_connect R_mid_tent01
Rope2_Seg01 null_rope02_connect
Rope2_Seg02 Rope2_Seg01
Rope2_Seg03 Rope2_Seg02
Rope2_Seg04 Rope2_Seg03
Rope2_Seg05 Rope2_Seg04
Rope2_Seg06 Rope2_Seg05
Rope2_Seg07 Rope2_Seg06
Rope2_Seg09 Rope2_Seg07
R_mid_hand01 Rope2_Seg09
R_mid_hand02 Rope2_Seg09
R_mid_hand03 Rope2_Seg09
spine02 spine01
spine03 spine02
pelvis spine03
null_rope03_connect pelvis
null_rope04_connect pelvis
Rope3_Seg01 null_rope03_connect
Rope3_Seg02 Rope3_Seg01
Rope3_Seg03 Rope3_Seg02
Rope3_Seg04 Rope3_Seg03
Rope3_Seg05 Rope3_Seg04
Rope3_Seg06 Rope3_Seg05
Rope3_Seg07 Rope3_Seg06
Rope3_Seg08 Rope3_Seg07
Rope3_Seg09 Rope3_Seg08
R_rear_hand01 Rope3_Seg09
R_rear_hand02 Rope3_Seg09
R_rear_hand03 Rope3_Seg09
Rope4_Seg01 null_rope04_connect
Rope4_Seg02 Rope4_Seg01
Rope4_Seg03 Rope4_Seg02
Rope4_Seg04 Rope4_Seg03
Rope4_Seg05 Rope4_Seg04
Rope4_Seg06 Rope4_Seg05
Rope4_Seg07 Rope4_Seg06
Rope4_Seg08 Rope4_Seg07
Rope4_Seg09 Rope4_Seg08
L_rear_hand01 Rope4_Seg09
L_rear_hand02 Rope4_Seg09
L_rear_hand03 Rope4_Seg09
[BasePosition]
#SegmentName Tx, Ty, Tz, Rx, Ry, Rz, BoneLength
MASTER 0.000000 0.000000 0.000000 -90.000000 0.000000 0.000000 10.000000 
root 0.000000 0.000000 0.000000 0.000000 0.000000 0.000000 10.000000 
chest 0.000000 0.000000 0.000000 0.000000 0.000000 0.000000 10.000000 
L_mid_tent01 0.000000 0.000000 0.000000 0.000000 0.000000 0.000000 10.000000 
R_mid_tent01 0.000000 0.000000 0.000000 0.000000 0.000000 0.000000 10.000000 
spine01 0.000000 0.000000 0.000000 0.000000 0.000000 0.000000 10.000000 
Bip01_Neck 0.000000 0.000000 0.000000 0.000000 0.000000 0.000000 10.000000 
L_humerus 0.000000 0.000000 0.000000 0.000000 0.000000 0.000000 10.000000 
R_humerus 0.000000 0.000000 0.000000 0.000000 0.000000 0.000000 10.000000 
weapon_bone 0.000000 0.000000 0.000000 0.000000 0.000000 0.000000 10.000000 
Bip01_Head 0.000000 0.000000 0.000000 0.000000 0.000000 0.000000 10.000000 
eye_left_bone 0.000000 0.000000 0.000000 0.000000 0.000000 0.000000 10.000000 
eye_right_bone 0.000000 0.000000 0.000000 0.000000 0.000000 0.000000 10.000000 
L_forearm 0.000000 0.000000 0.000000 0.000000 0.000000 0.000000 10.000000 
L_front_hand 0.000000 0.000000 0.000000 0.000000 0.000000 0.000000 10.000000 
L_weapon_bone 0.000000 0.000000 0.000000 0.000000 0.000000 0.000000 10.000000 
L_front_hand01_01 0.000000 0.000000 0.000000 0.000000 0.000000 0.000000 10.000000 
L_front_hand02_01 0.000000 0.000000 0.000000 0.000000 0.000000 0.000000 10.000000 
L_front_hand03_01 0.000000 0.000000 0.000000 0.000000 0.000000 0.000000 10.000000 
L_front_hand01_02 0.000000 0.000000 0.000000 0.000000 0.000000 0.000000 10.000000 
L_front_hand02_02 0.000000 0.000000 0.000000 0.000000 0.000000 0.000000 10.000000 
L_front_hand03_02 0.000000 0.000000 0.000000 0.000000 0.000000 0.000000 10.000000 
R_forearm 0.000000 0.000000 0.000000 0.000000 0.000000 0.000000 10.000000 
R_front_hand 0.000000 0.000000 0.000000 0.000000 0.000000 0.000000 10.000000 
R_weapon_bone 0.000000 0.000000 0.000000 0.000000 0.000000 0.000000 10.000000 
R_front_hand01_01 0.000000 0.000000 0.000000 0.000000 0.000000 0.000000 10.000000 
R_front_hand02_01 0.000000 0.000000 0.000000 0.000000 0.000000 0.000000 10.000000 
R_front_hand03_01 0.000000 0.000000 0.000000 0.000000 0.000000 0.000000 10.000000 
R_front_hand01_02 0.000000 0.000000 0.000000 0.000000 0.000000 0.000000 10.000000 
R_front_hand02_02 0.000000 0.000000 0.000000 0.000000 0.000000 0.000000 10.000000 
R_front_hand03_02 0.000000 0.000000 0.000000 0.000000 0.000000 0.000000 10.000000 
null_rope01_connect 0.000000 0.000000 0.000000 0.000000 0.000000 0.000000 10.000000 
Rope1_Seg01 0.000000 0.000000 0.000000 0.000000 0.000000 0.000000 10.000000 
Rope1_Seg02 0.000000 0.000000 0.000000 0.000000 0.000000 0.000000 10.000000 
Rope1_Seg03 0.000000 0.000000 0.000000 0.000000 0.000000 0.000000 10.000000 
Rope1_Seg04 0.000000 0.000000 0.000000 0.000000 0.000000 0.000000 10.000000 
Rope1_Seg05 0.000000 0.000000 0.000000 0.000000 0.000000 0.000000 10.000000 
Rope1_Seg06 0.000000 0.000000 0.000000 0.000000 0.000000 0.000000 10.000000 
Rope1_Seg07 0.000000 0.000000 0.000000 0.000000 0.000000 0.000000 10.000000 
Rope1_Seg09 0.000000 0.000000 0.000000 0.000000 0.000000 0.000000 10.000000 
L_mid_hand01 0.000000 0.000000 0.000000 0.000000 0.000000 0.000000 10.000000 
L_mid_hand02 0.000000 0.000000 0.000000 0.000000 0.000000 0.000000 10.000000 
L_mid_hand03 0.000000 0.000000 0.000000 0.000000 0.000000 0.000000 10.000000 
null_rope02_connect 0.000000 0.000000 0.000000 0.000000 0.000000 0.000000 10.000000 
Rope2_Seg01 0.000000 0.000000 0.000000 0.000000 0.000000 0.000000 10.000000 
Rope2_Seg02 0.000000 0.000000 0.000000 0.000000 0.000000 0.000000 10.000000 
Rope2_Seg03 0.000000 0.000000 0.000000 0.000000 0.000000 0.000000 10.000000 
Rope2_Seg04 0.000000 0.000000 0.000000 0.000000 0.000000 0.000000 10.000000 
Rope2_Seg05 0.000000 0.000000 0.000000 0.000000 0.000000 0.000000 10.000000 
Rope2_Seg06 0.000000 0.000000 0.000000 0.000000 0.000000 0.000000 10.000000 
Rope2_Seg07 0.000000 0.000000 0.000000 0.000000 0.000000 0.000000 10.000000 
Rope2_Seg09 0.000000 0.000000 0.000000 0.000000 0.000000 0.000000 10.000000 
R_mid_hand01 0.000000 0.000000 0.000000 0.000000 0.000000 0.000000 10.000000 
R_mid_hand02 0.000000 0.000000 0.000000 0.000000 0.000000 0.000000 10.000000 
R_mid_hand03 0.000000 0.000000 0.000000 0.000000 0.000000 0.000000 10.000000 
spine02 0.000000 0.000000 0.000000 0.000000 0.000000 0.000000 10.000000 
spine03 0.000000 0.000000 0.000000 0.000000 0.000000 0.000000 10.000000 
pelvis 0.000000 0.000000 0.000000 0.000000 0.000000 0.000000 10.000000 
null_rope03_connect 0.000000 0.000000 0.000000 0.000000 0.000000 0.000000 10.000000 
null_rope04_connect 0.000000 0.000000 0.000000 0.000000 0.000000 0.000000 10.000000 
Rope3_Seg01 0.000000 0.000000 0.000000 0.000000 0.000000 0.000000 10.000000 
Rope3_Seg02 0.000000 0.000000 0.000000 0.000000 0.000000 0.000000 10.000000 
Rope3_Seg03 0.000000 0.000000 0.000000 0.000000 0.000000 0.000000 10.000000 
Rope3_Seg04 0.000000 0.000000 0.000000 0.000000 0.000000 0.000000 10.000000 
Rope3_Seg05 0.000000 0.000000 0.000000 0.000000 0.000000 0.000000 10.000000 
Rope3_Seg06 0.000000 0.000000 0.000000 0.000000 0.000000 0.000000 10.000000 
Rope3_Seg07 0.000000 0.000000 0.000000 0.000000 0.000000 0.000000 10.000000 
Rope3_Seg08 0.000000 0.000000 0.000000 0.000000 0.000000 0.000000 10.000000 
Rope3_Seg09 0.000000 0.000000 0.000000 0.000000 0.000000 0.000000 10.000000 
R_rear_hand01 0.000000 0.000000 0.000000 0.000000 0.000000 0.000000 10.000000 
R_rear_hand02 0.000000 0.000000 0.000000 0.000000 0.000000 0.000000 10.000000 
R_rear_hand03 0.000000 0.000000 0.000000 0.000000 0.000000 0.000000 10.000000 
Rope4_Seg01 0.000000 0.000000 0.000000 0.000000 0.000000 0.000000 10.000000 
Rope4_Seg02 0.000000 0.000000 0.000000 0.000000 0.000000 0.000000 10.000000 
Rope4_Seg03 0.000000 0.000000 0.000000 0.000000 0.000000 0.000000 10.000000 
Rope4_Seg04 0.000000 0.000000 0.000000 0.000000 0.000000 0.000000 10.000000 
Rope4_Seg05 0.000000 0.000000 0.000000 0.000000 0.000000 0.000000 10.000000 
Rope4_Seg06 0.000000 0.000000 0.000000 0.000000 0.000000 0.000000 10.000000 
Rope4_Seg07 0.000000 0.000000 0.000000 0.000000 0.000000 0.000000 10.000000 
Rope4_Seg08 0.000000 0.000000 0.000000 0.000000 0.000000 0.000000 10.000000 
Rope4_Seg09 0.000000 0.000000 0.000000 0.000000 0.000000 0.000000 10.000000 
L_rear_hand01 0.000000 0.000000 0.000000 0.000000 0.000000 0.000000 10.000000 
L_rear_hand02 0.000000 0.000000 0.000000 0.000000 0.000000 0.000000 10.000000 
L_rear_hand03 0.000000 0.000000 0.000000 0.000000 0.000000 0.000000 10.000000 
#Beginning of Data. Separated by tabs
#Fr	Tx	Ty	Tz	Rx	Ry	Rz	SF
[MASTER]
10 -0.000082 607.804688 0.000000 0.001660 0.001660 0.001660 607.804749
11 -0.000080 600.780273 0.000000 0.001660 0.001660 0.001660 600.780273
[root]
10 -272.676025 213.025024 1426.161621 -83.892105 -24.357859 -96.186943 1467.538452
11 -262.882202 218.047211 1403.437988 -85.213837 -24.357023 -96.184410 1444.399414
[chest]
10 -84.512650 -34.090519 0.000000 -0.173168 -7.907704 172.837097 91.129311
11 -84.512650 -34.090519 0.000000 0.466442 -8.135948 172.915100 91.129311
[L_mid_tent01]
10 27.418030 22.109484 -250.679642 12.888858 37.295086 82.948807 253.141983
11 27.431202 22.101934 -250.764282 13.004847 37.214340 83.083328 253.226563
[R_mid_tent01]
10 23.228794 24.509907 226.238495 158.854172 -13.130857 73.290970 228.744751
11 23.228794 24.509907 226.238495 158.369339 -12.739722 73.848686 228.744751
[spine01]
10 -0.361383 -0.195265 0.000000 0.001869 0.001420 15.534141 0.410763
11 -0.361383 -0.195265 0.000000 0.001869 0.001420 15.534141 0.410763
[Bip01_Neck]
10 165.484543 71.581718 0.000119 175.896118 1.177290 24.871183 180.302734
11 165.484543 71.581718 0.000119 175.896118 1.177290 24.871183 180.302734
[L_humerus]
10 -13.983130 -135.272980 -120.471481 178.398376 32.754063 -96.994995 181.680161
11 -13.983130 -135.272980 -120.471481 178.057495 32.479038 -96.874313 181.680161
[R_humerus]
10 -13.983309 -135.273102 125.287651 -163.582397 -27.954416 -105.242813 184.909012
11 -13.983309 -135.273102 125.287651 -163.609604 -27.411798 -105.236984 184.909012
[weapon_bone]
10 235.964890 -300.705902 0.000000 0.000000 -89.951546 -128.212341 382.234833
11 235.964890 -300.705902 0.000000 0.000000 -89.951546 -128.212341 382.234833
[Bip01_Head]
10 183.960144 173.008865 16.183558 -17.298822 4.613801 -50.551048 253.052002
11 183.872833 170.702499 16.226175 -18.493793 4.616178 -50.555481 251.419678
[eye_left_bone]
10 -24.626970 125.451866 -64.772606 0.000000 -90.000000 -99.840431 143.318359
11 -24.626970 125.451866 -64.772606 0.000000 -90.000000 -99.840431 143.318359
[eye_right_bone]
10 -24.626970 125.451866 64.327362 0.000000 -89.972023 80.159386 143.117676
11 -24.626970 125.451866 64.327362 0.000000 -89.960434 80.159386 143.117676
[L_forearm]
10 322.776093 0.000000 -0.000119 0.000075 -0.002346 -93.663040 322.776093
11 322.776093 0.000000 -0.000119 0.000124 -0.002344 -96.047211 322.776093
[L_front_hand]
10 241.149185 -0.042021 -3.300071 -178.139984 -1.302619 -46.468651 241.171753
11 241.149185 -0.042021 -3.300071 -178.070084 -1.196824 -49.614010 241.171753
[L_weapon_bone]
10 156.183838 0.000000 0.000000 0.000014 0.000007 0.000001 156.183838
11 156.183838 0.000000 0.000000 0.000014 0.000007 0.000001 156.183838
[L_front_hand01_01]
10 86.095154 20.947098 -0.655860 -0.366594 -0.477154 75.385574 88.609184
11 86.095154 20.947098 -0.655860 -0.366594 -0.477154 75.385574 88.609184
[L_front_hand02_01]
10 86.935165 -11.437475 24.513514 154.403488 -59.888916 -61.371967 91.046425
11 86.935165 -11.437475 24.513514 154.403519 -59.888931 -61.371990 91.046425
[L_front_hand03_01]
10 86.637497 -14.123976 -20.424902 -153.913849 58.118122 -62.702866 90.126129
11 86.637497 -14.123976 -20.424902 -153.913849 58.118122 -62.702866 90.126129
[L_front_hand01_02]
10 71.020905 -0.000179 0.000030 0.000334 -0.002323 -106.379684 71.020905
11 71.020905 -0.000179 0.000030 0.000334 -0.002323 -106.379684 71.020905
[L_front_hand02_02]
10 71.020927 -0.000119 0.000060 0.000334 -0.002323 -106.379684 71.020927
11 71.020927 -0.000119 0.000060 0.000334 -0.002323 -106.379684 71.020927
[L_front_hand03_02]
10 71.020905 -0.000060 0.000060 0.000334 -0.002323 -106.379684 71.020905
11 71.020905 -0.000060 0.000060 0.000334 -0.002323 -106.379684 71.020905
[R_forearm]
10 322.776428 -0.000060 0.000030 0.202758 -0.063088 -73.108719 322.776428
11 322.776428 -0.000060 0.000030 0.208224 -0.054750 -76.086830 322.776428
[R_front_hand]
10 238.847015 -0.006795 2.210259 4.896148 0.790229 -51.441319 238.857239
11 238.847015 -0.006795 2.210259 6.014291 0.790622 -51.440136 238.857239
[R_weapon_bone]
10 155.664093 0.002503 -0.000030 0.003487 0.001180 -90.988930 155.664078
11 155.664093 0.002503 -0.000030 0.003487 0.001180 -90.988930 155.664078
[R_front_hand01_01]
10 87.624611 14.231146 22.918642 -154.633484 -59.950619 61.746037 91.683487
11 87.624611 14.231146 22.918642 -154.633484 -59.950607 61.746033 91.683487
[R_front_hand02_01]
10 89.356956 14.367283 -19.491137 154.602661 58.302849 63.744389 92.579636
11 89.356956 14.367283 -19.491137 154.602661 58.302849 63.744389 92.579636
[R_front_hand03_01]
10 87.286232 -22.307278 -0.143439 0.162155 -0.423168 -75.767906 90.091743
11 87.286232 -22.307278 -0.143439 0.162155 -0.423168 -75.767921 90.091743
[R_front_hand01_02]
10 71.020905 0.000060 0.000119 0.002323 -0.000334 106.381714 71.020905
11 71.020905 0.000060 0.000119 0.002323 -0.000334 106.381714 71.020905
[R_front_hand02_02]
10 71.020844 -0.000030 -0.000119 0.002323 -0.000334 106.381714 71.020836
11 71.020844 -0.000030 -0.000119 0.002323 -0.000334 106.381714 71.020836
[R_front_hand03_02]
10 71.020905 0.000000 0.000030 0.002323 -0.000334 106.381714 71.020905
11 71.020905 0.000000 0.000030 0.002323 -0.000334 106.381714 71.020905
[null_rope01_connect]
10 328.732483 0.000000 -0.000238 -119.417580 -50.869144 153.127594 328.732483
11 328.732483 0.000000 -0.000238 -120.375938 -49.835594 154.129013 328.732483
[Rope1_Seg01]
10 5.535049 -5.654983 -1.180115 76.907265 32.759407 -92.038818 8.000517
11 5.508492 -5.669568 -1.226972 74.814484 31.007380 -94.751350 7.999560
[Rope1_Seg02]
10 139.999863 -0.000179 0.000000 -1.307175 3.713131 -8.073920 139.999863
11 139.999863 -0.000179 0.000000 -1.404395 3.781271 -8.018614 139.999863
[Rope1_Seg03]
10 139.999924 0.000060 -0.000060 -2.083496 8.222934 -17.361897 139.999924
11 139.999924 0.000060 -0.000060 -2.328410 8.516042 -17.479759 139.999924
[Rope1_Seg04]
10 139.999924 -0.000060 -0.000119 -1.227238 17.126257 -38.178249 139.999924
11 139.999924 -0.000060 -0.000119 -2.281688 17.992102 -38.893932 139.999924
[Rope1_Seg05]
10 139.999832 0.000119 -0.000060 15.283364 10.059814 -26.167652 139.999832
11 139.999832 0.000119 -0.000060 13.190759 10.699782 -25.911652 139.999832
[Rope1_Seg06]
10 139.999954 0.000119 -0.000060 25.438873 1.277765 -12.855820 139.999954
11 139.999954 0.000119 -0.000060 23.357967 2.044756 -12.879506 139.999954
[Rope1_Seg07]
10 139.999985 0.000060 0.000000 42.874279 -3.910830 -11.178041 139.999985
11 139.999985 0.000060 0.000000 45.952885 -2.972656 -11.978135 139.999985
[Rope1_Seg09]
10 121.602913 0.000119 -0.000089 -89.793175 -1.359789 0.847147 121.602913
11 121.602913 0.000119 -0.000089 -89.793175 -1.359789 0.847147 121.602913
[L_mid_hand01]
10 103.859421 1.038730 8.195221 116.294914 -23.111713 -31.758034 104.187431
11 103.859421 1.038730 8.195221 116.294914 -23.111719 -31.758038 104.187431
[L_mid_hand02]
10 105.572853 -4.139662 -10.864139 -144.219833 17.447468 -35.360519 106.211075
11 105.572853 -4.139662 -10.864139 -144.219833 17.447468 -35.360519 106.211075
[L_mid_hand03]
10 104.641464 17.579376 -3.913581 -17.830780 17.153103 31.982925 106.179977
11 104.641464 17.579376 -3.913581 -17.830778 17.153101 31.982925 106.179977
[null_rope02_connect]
10 328.732849 0.000179 -0.000119 -91.673790 69.380066 43.459755 328.732849
11 328.732849 0.000179 -0.000119 -87.531754 69.772530 48.532555 328.732849
[Rope2_Seg01]
10 0.000054 0.000162 0.000000 85.297722 17.860767 17.343243 0.000170
11 0.000053 0.000163 0.000000 77.601418 26.971546 9.238658 0.000171
[Rope2_Seg02]
10 139.999741 -0.000060 -0.000119 -0.424296 6.221060 -3.642630 139.999756
11 139.999741 -0.000060 -0.000119 0.633636 7.485964 -1.022510 139.999756
[Rope2_Seg03]
10 140.000107 0.000030 0.000000 -0.536877 8.739045 -5.095373 140.000107
11 140.000107 0.000030 0.000000 0.348704 10.323156 -1.546021 140.000107
[Rope2_Seg04]
10 139.999802 0.000000 -0.000060 -0.948770 14.213290 -9.487228 139.999802
11 139.999802 0.000000 -0.000060 -0.755407 16.317352 -3.884557 139.999802
[Rope2_Seg05]
10 139.999985 -0.000060 0.000119 -0.018894 18.918991 -14.181661 139.999985
11 139.999985 -0.000060 0.000119 -2.566839 20.467941 -5.887824 139.999985
[Rope2_Seg06]
10 139.999893 -0.000030 -0.000119 -3.156940 3.289464 3.089052 139.999893
11 139.999893 -0.000030 -0.000119 -3.684434 3.676212 4.597855 139.999893
[Rope2_Seg07]
10 139.999893 0.000060 -0.000060 -7.670557 -9.107705 16.998684 139.999893
11 139.999893 0.000060 -0.000060 -4.479189 -9.706527 12.215332 139.999893
[Rope2_Seg09]
10 121.338966 0.000089 -0.000060 33.793236 -1.359788 -0.847141 121.338966
11 121.338966 0.000089 -0.000060 33.793236 -1.359788 -0.847141 121.338966
[R_mid_hand01]
10 104.680779 11.144459 -10.335981 -41.523792 25.424656 28.595957 105.778534
11 104.680779 11.144459 -10.335981 -41.523792 25.424656 28.595957 105.778534
[R_mid_hand02]
10 104.070427 2.443552 8.231699 72.847389 -32.746803 10.013901 104.424065
11 104.070427 2.443552 8.231699 72.847389 -32.746803 10.013901 104.424065
[R_mid_hand03]
10 106.028137 -11.221827 -5.996406 -167.901306 10.259192 -37.009720 106.788818
11 106.028137 -11.221827 -5.996406 -167.901306 10.259192 -37.009720 106.788818
[spine02]
10 129.756927 0.001550 0.000119 -0.245322 -4.052060 -4.355547 129.756927
11 129.756927 0.001550 0.000119 -0.245322 -4.052060 -4.355547 129.756927
[spine03]
10 78.613846 0.087372 -4.898873 0.369659 4.260735 -4.885721 78.766380
11 78.613846 0.087372 -4.898873 0.369659 4.260735 -4.885721 78.766380
[pelvis]
10 169.435242 0.051022 0.000000 -0.010007 -0.191417 -1.897554 169.435257
11 169.435242 0.051022 0.000000 -0.010007 -0.191417 -1.897554 169.435257
[null_rope03_connect]
10 -1.257226 -2.466202 137.391083 -30.366226 -83.042862 140.652267 137.418976
11 -1.257226 -2.466202 137.391083 -40.262314 -83.708862 150.481308 137.418976
[null_rope04_connect]
10 -1.259640 -2.480268 -137.844437 -30.366226 -83.042862 140.652267 137.872513
11 -1.259640 -2.480268 -137.844437 -40.262314 -83.708862 150.481308 137.872513
[Rope3_Seg01]
10 0.000000 0.000000 0.000000 -54.766907 -49.618252 10.345493 0.000000
11 0.000000 0.000000 0.000000 -53.084465 -50.326015 8.724025 0.000000
[Rope3_Seg02]
10 139.999924 -0.000119 0.000060 -1.754297 -1.551163 4.295421 139.999924
11 139.999924 -0.000119 0.000060 -1.711886 -1.617447 4.271092 139.999924
[Rope3_Seg03]
10 139.999924 -0.000119 0.000119 -3.231796 -2.528420 6.400858 139.999924
11 139.999924 -0.000119 0.000119 -3.157107 -2.622531 6.372064 139.999924
[Rope3_Seg04]
10 139.999924 0.000119 0.000000 -7.023480 -4.712793 10.331324 139.999924
11 139.999924 0.000119 0.000000 -6.856034 -4.859149 10.293017 139.999924
[Rope3_Seg05]
10 139.999924 -0.000238 0.000060 -23.429325 -13.279568 22.223663 139.999924
11 139.999924 -0.000238 0.000060 -22.783836 -13.526255 22.167955 139.999924
[Rope3_Seg06]
10 139.999893 -0.000119 -0.000060 -22.251375 -17.602722 14.508539 139.999893
11 139.999893 -0.000119 -0.000060 -21.608356 -17.602066 14.577686 139.999893
[Rope3_Seg07]
10 139.999771 0.000060 -0.000119 -2.451842 -2.695316 2.068414 139.999771
11 139.999771 0.000060 -0.000119 -2.388752 -2.700388 2.116504 139.999771
[Rope3_Seg08]
10 139.999985 -0.000060 0.000000 -3.337246 -4.092590 2.007327 139.999985
11 139.999985 -0.000060 0.000000 -3.260492 -4.086918 2.078652 139.999985
[Rope3_Seg09]
10 90.185997 -0.000179 -0.000060 89.793228 -1.359877 -0.847183 90.185997
11 90.185997 -0.000179 -0.000060 89.793228 -1.359877 -0.847183 90.185997
[R_rear_hand01]
10 103.366196 -6.073594 -10.757982 -161.551193 16.666374 -30.088671 104.101845
11 103.366196 -6.073594 -10.757982 -161.551193 16.666374 -30.088671 104.101845
[R_rear_hand02]
10 100.509819 12.039542 -7.992327 -34.280552 19.289745 28.875523 101.543350
11 100.509819 12.039542 -7.992327 -34.280552 19.289745 28.875523 101.543350
[R_rear_hand03]
10 101.539970 5.215704 5.435467 83.366440 -30.933914 7.284830 101.819031
11 101.539970 5.215704 5.435467 83.366440 -30.933914 7.284830 101.819031
[Rope4_Seg01]
10 -0.000036 -0.000072 0.000143 -49.546474 -17.949747 -178.581940 0.000164
11 -0.000036 -0.000071 0.000142 -50.730980 -18.943903 -177.426758 0.000163
[Rope4_Seg02]
10 139.999985 0.000060 0.000119 16.771942 5.892176 -12.282527 139.999985
11 139.999985 0.000060 0.000119 15.983469 5.867888 -12.289011 139.999985
[Rope4_Seg03]
10 139.999924 0.000000 -0.000238 18.601557 2.890601 -20.531942 139.999924
11 139.999924 0.000000 -0.000238 17.969028 3.123533 -20.463140 139.999924
[Rope4_Seg04]
10 139.999985 0.000000 0.000119 10.492439 -6.053139 -20.771646 139.999985
11 139.999985 0.000000 0.000119 10.345680 -5.598402 -20.837286 139.999985
[Rope4_Seg05]
10 139.999802 -0.000060 -0.000119 4.568049 -4.449018 -15.472600 139.999802
11 139.999802 -0.000060 -0.000119 4.511252 -4.083882 -15.553815 139.999802
[Rope4_Seg06]
10 139.999924 0.000000 0.000060 2.852217 -3.153413 -23.844133 139.999924
11 139.999924 0.000000 0.000060 2.752425 -2.581900 -23.879744 139.999924
[Rope4_Seg07]
10 139.999802 0.000000 0.000000 -1.883391 -4.052080 -23.862587 139.999802
11 139.999802 0.000000 0.000000 -1.875995 -3.484514 -23.883337 139.999802
[Rope4_Seg08]
10 139.999924 0.000000 0.000119 -4.524697 -1.901203 -11.606171 139.999924
11 139.999924 0.000000 0.000119 -4.435578 -1.648923 -11.621640 139.999924
[Rope4_Seg09]
10 90.185791 0.000060 0.000060 -135.617828 2.228885 0.850567 90.185791
11 90.185791 0.000060 0.000060 -135.617828 2.228885 0.850567 90.185791
[L_rear_hand01]
10 101.696655 -8.392275 -7.654577 -34.454281 -18.946800 151.655121 102.329041
11 101.696655 -8.392275 -7.654577 -34.454281 -18.946800 151.655121 102.329041
[L_rear_hand02]
10 102.726799 -1.568258 5.773216 83.407906 30.330435 172.796509 102.900848
11 102.726799 -1.568258 5.773216 83.407906 30.330435 172.796509 102.900848
[L_rear_hand03]
10 104.552910 9.721220 -10.420293 -161.379868 -16.473232 -150.512238 105.519653
11 104.552910 9.721220 -10.420293 -161.379868 -16.473232 -150.512238 105.519653
